<svg width="40" height="40" viewBox="0 0 40 40" fill="none" xmlns="http://www.w3.org/2000/svg">
<g clip-path="url(#clip0_133_885)">
<path fill-rule="evenodd" clip-rule="evenodd" d="M19.5 10C20.5688 10 21.665 10.0275 22.7275 10.0725L23.9825 10.1325L25.1838 10.2038L26.3088 10.28L27.3362 10.36C28.4513 10.4453 29.5006 10.9212 30.2994 11.7038C31.0983 12.4864 31.5955 13.5257 31.7038 14.6388L31.7537 15.17L31.8475 16.3075C31.935 17.4862 32 18.7712 32 20C32 21.2288 31.935 22.5138 31.8475 23.6925L31.7537 24.83C31.7375 25.0125 31.7213 25.1887 31.7038 25.3612C31.5955 26.4745 31.098 27.5139 30.2989 28.2966C29.4998 29.0792 28.4503 29.5549 27.335 29.64L26.31 29.7188L25.185 29.7962L23.9825 29.8675L22.7275 29.9275C21.6523 29.9742 20.5762 29.9984 19.5 30C18.4238 29.9984 17.3477 29.9742 16.2725 29.9275L15.0175 29.8675L13.8162 29.7962L12.6912 29.7188L11.6637 29.64C10.5487 29.5547 9.49944 29.0788 8.70059 28.2962C7.90174 27.5136 7.40447 26.4743 7.29625 25.3612L7.24625 24.83L7.1525 23.6925C7.05692 22.4639 7.00606 21.2323 7 20C7 18.7712 7.065 17.4862 7.1525 16.3075L7.24625 15.17C7.2625 14.9875 7.27875 14.8112 7.29625 14.6388C7.40443 13.5259 7.90152 12.4868 8.70011 11.7042C9.49871 10.9216 10.5477 10.4456 11.6625 10.36L12.6888 10.28L13.8138 10.2038L15.0163 10.1325L16.2712 10.0725C17.3469 10.0258 18.4234 10.0016 19.5 10ZM17 16.9688V23.0312C17 23.6088 17.625 23.9688 18.125 23.6812L23.375 20.65C23.4892 20.5842 23.5841 20.4895 23.6501 20.3754C23.7161 20.2613 23.7508 20.1318 23.7508 20C23.7508 19.8682 23.7161 19.7387 23.6501 19.6246C23.5841 19.5105 23.4892 19.4158 23.375 19.35L18.125 16.32C18.011 16.2542 17.8816 16.2195 17.7499 16.2195C17.6182 16.2195 17.4888 16.2542 17.3748 16.3201C17.2608 16.386 17.1661 16.4808 17.1003 16.5948C17.0345 16.7089 16.9999 16.8383 17 16.97" fill="#586F80"/>
</g>
<defs>
<clipPath id="clip0_133_885">
<rect width="40" height="40" fill="white"/>
</clipPath>
</defs>
</svg>
