<svg width="40" height="40" viewBox="0 0 40 40" fill="none" xmlns="http://www.w3.org/2000/svg">
<path fill-rule="evenodd" clip-rule="evenodd" d="M25.5907 9.59258C21.9086 8.80247 18.0903 8.80247 14.4082 9.59258L14.0115 9.67684C12.9758 9.89913 12.0245 10.3927 11.2634 11.1027C10.5023 11.8127 9.96112 12.7114 9.7 13.6988C8.76667 17.2293 8.76667 20.9277 9.7 24.4582C9.94902 25.4 10.453 26.2618 11.1608 26.9563C11.8687 27.6508 12.7552 28.1533 13.7306 28.4128L14.2748 31.5315C14.2922 31.6306 14.3369 31.7233 14.4043 31.8001C14.4717 31.877 14.5593 31.935 14.658 31.9683C14.7567 32.0016 14.8629 32.0088 14.9655 31.9893C15.0681 31.9698 15.1634 31.9242 15.2415 31.8574L18.4377 29.1127C20.8369 29.2533 23.2449 29.0691 25.5907 28.5656L25.9886 28.4813C27.0243 28.2591 27.9756 27.7655 28.7367 27.0555C29.4978 26.3455 30.039 25.4468 30.3001 24.4594C31.2333 20.9288 31.2333 17.2305 30.3001 13.7C30.0389 12.7123 29.4975 11.8136 28.7362 11.1036C27.9749 10.3935 27.0234 9.90007 25.9874 9.67796L25.5907 9.59258ZM15.396 13.6078C15.1785 13.5774 14.9567 13.6195 14.7675 13.7269H14.7511C14.3123 13.9741 13.9167 14.2853 13.5796 14.6515C13.2988 14.9627 13.1466 15.2773 13.1068 15.5806C13.0834 15.7604 13.0998 15.9424 13.1548 16.1143L13.1759 16.1255C13.4919 17.0164 13.9038 17.8736 14.4071 18.6803C15.0559 19.8133 15.8545 20.8611 16.7828 21.7979L16.8109 21.8361L16.8554 21.8675L16.8823 21.8979L16.9151 21.9248C17.8943 22.8187 18.9884 23.5889 20.1709 24.2167C21.5226 24.9233 22.343 25.257 22.8357 25.3963V25.4031C22.9797 25.4458 23.1108 25.4649 23.243 25.4649C23.6626 25.4351 24.0598 25.2713 24.3712 24.9997C24.7516 24.6762 25.0734 24.2953 25.3238 23.8718V23.8639C25.5591 23.437 25.4795 23.0348 25.1401 22.7618C24.4584 22.19 23.7212 21.6821 22.9387 21.2451C22.4144 20.9721 21.8819 21.1373 21.6666 21.4136L21.2066 21.9709C20.9702 22.2473 20.5419 22.2091 20.5419 22.2091L20.5302 22.2158C17.334 21.4327 16.4809 18.3264 16.4809 18.3264C16.4809 18.3264 16.4411 17.904 16.7372 17.6882L17.313 17.2434C17.5892 17.0277 17.7811 16.5176 17.485 16.0143C17.0328 15.2624 16.5048 14.555 15.9086 13.9022C15.7785 13.7485 15.5962 13.6439 15.3936 13.6067L15.396 13.6078ZM20.7959 12.2574C20.6407 12.2574 20.4918 12.3166 20.3821 12.422C20.2723 12.5273 20.2107 12.6702 20.2107 12.8192C20.2107 12.9681 20.2723 13.111 20.3821 13.2164C20.4918 13.3217 20.6407 13.3809 20.7959 13.3809C22.2763 13.3809 23.5052 13.8449 24.4777 14.7347C24.9774 15.2211 25.3671 15.7975 25.6223 16.4288C25.8786 17.0614 25.9956 17.7366 25.9652 18.4129C25.962 18.4866 25.9739 18.5603 26.0003 18.6296C26.0267 18.699 26.0671 18.7626 26.1192 18.817C26.2243 18.9268 26.3706 18.9919 26.5258 18.9982C26.681 19.0045 26.8324 18.9513 26.9467 18.8504C27.0611 18.7494 27.129 18.609 27.1355 18.4601C27.1718 17.6281 27.028 16.798 26.713 16.0222C26.3967 15.2426 25.9171 14.5337 25.304 13.9393L25.2922 13.928C24.0856 12.8214 22.5584 12.2574 20.7959 12.2574ZM20.7561 14.1044C20.6009 14.1044 20.452 14.1636 20.3423 14.2689C20.2326 14.3743 20.1709 14.5172 20.1709 14.6661C20.1709 14.8151 20.2326 14.958 20.3423 15.0633C20.452 15.1687 20.6009 15.2279 20.7561 15.2279H20.776C21.8433 15.3009 22.6204 15.6424 23.1646 16.203C23.7228 16.7805 24.0119 17.4984 23.9897 18.3859C23.9861 18.5349 24.0443 18.6791 24.1515 18.7869C24.2588 18.8947 24.4062 18.9571 24.5614 18.9606C24.7166 18.964 24.8668 18.9081 24.9791 18.8052C25.0914 18.7023 25.1564 18.5607 25.16 18.4118C25.1881 17.2467 24.7972 16.2412 24.0224 15.4391V15.4368C23.2301 14.6212 22.1429 14.1898 20.8345 14.1055L20.8146 14.1033L20.7561 14.1044ZM20.7338 15.9862C20.6555 15.9796 20.5766 15.9882 20.5018 16.0114C20.4271 16.0347 20.3579 16.0722 20.2986 16.1217C20.2393 16.1712 20.1909 16.2317 20.1564 16.2995C20.122 16.3674 20.1021 16.4412 20.098 16.5165C20.0939 16.5919 20.1057 16.6673 20.1326 16.7382C20.1596 16.8091 20.2011 16.874 20.2548 16.9292C20.3084 16.9844 20.3731 17.0286 20.445 17.0592C20.5168 17.0898 20.5944 17.1062 20.673 17.1074C21.1622 17.1321 21.4746 17.2737 21.6713 17.4636C21.869 17.6545 22.0165 17.9612 22.0434 18.441C22.0449 18.5164 22.0621 18.5907 22.0942 18.6595C22.1262 18.7284 22.1723 18.7903 22.2298 18.8417C22.2873 18.8931 22.355 18.9328 22.4288 18.9585C22.5026 18.9843 22.5811 18.9955 22.6595 18.9915C22.738 18.9875 22.8147 18.9683 22.8853 18.9353C22.9559 18.9022 23.0188 18.8558 23.0703 18.7989C23.1218 18.7419 23.1608 18.6756 23.1851 18.6039C23.2093 18.5322 23.2183 18.4565 23.2114 18.3814C23.174 17.7073 22.9539 17.1119 22.5034 16.6738C22.0504 16.2356 21.4337 16.0222 20.7338 15.9862Z" fill="#586F80"/>
</svg>
