<svg width="40" height="40" viewBox="0 0 40 40" fill="none" xmlns="http://www.w3.org/2000/svg">
<path d="M30.0758 26.9989H27.5574C26.6051 26.9989 26.3181 26.2085 24.6109 24.4581C23.1189 22.9848 22.4888 22.8016 22.1113 22.8016C21.5893 22.8016 21.447 22.9486 21.447 23.6847V26.005C21.447 26.6325 21.2483 27 19.6482 27C18.0958 26.8931 16.5904 26.4099 15.2559 25.5902C13.9215 24.7704 12.7962 23.6375 11.9728 22.2848C10.0177 19.7916 8.6574 16.8653 8 13.7388C8 13.3521 8.14346 13.0015 8.86299 13.0015H11.3791C12.0258 13.0015 12.2587 13.2967 12.5125 13.9785C13.7341 17.6624 15.8188 20.8669 16.6652 20.8669C16.9897 20.8669 17.1309 20.7199 17.1309 19.8911V16.0963C17.0239 14.3652 16.1267 14.2193 16.1267 13.5929C16.138 13.4276 16.2118 13.2734 16.3324 13.163C16.4529 13.0526 16.6107 12.9947 16.7723 13.0015H20.7275C21.2682 13.0015 21.447 13.2774 21.447 13.94V19.0623C21.447 19.6152 21.6787 19.7984 21.8421 19.7984C22.1665 19.7984 22.4159 19.6152 23.0107 19.0069C24.2858 17.4136 25.3274 15.6386 26.1029 13.7376C26.1823 13.5094 26.3324 13.314 26.5302 13.1813C26.7281 13.0486 26.9629 12.9859 27.1988 13.0027H29.716C30.4709 13.0027 30.6309 13.3894 30.4709 13.9412C29.5553 16.0425 28.4225 18.0373 27.0917 19.8911C26.8203 20.3151 26.7121 20.5356 27.0917 21.0331C27.3411 21.4198 28.224 22.1752 28.8166 22.8932C29.6796 23.7752 30.3958 24.7951 30.9377 25.9122C31.154 26.6314 30.7942 26.9989 30.0758 26.9989Z" fill="#586F80"/>
</svg>
