<svg width="40" height="40" viewBox="0 0 40 40" fill="none" xmlns="http://www.w3.org/2000/svg">
<path d="M21.1308 9C22.3682 9.0033 22.9963 9.0099 23.5386 9.0253L23.752 9.033C23.9984 9.0418 24.2415 9.0528 24.5351 9.066C25.7055 9.121 26.504 9.30579 27.2047 9.57749C27.9307 9.85688 28.5422 10.2353 29.1538 10.8458C29.7131 11.3956 30.1459 12.0608 30.422 12.7949C30.6937 13.4956 30.8785 14.2942 30.9335 15.4656C30.9467 15.7582 30.9577 16.0013 30.9665 16.2488L30.9731 16.4622C30.9896 17.0034 30.9962 17.6315 30.9984 18.869L30.9995 19.6896V21.1305C31.0022 21.9328 30.9938 22.7352 30.9742 23.5373L30.9676 23.7507C30.9588 23.9981 30.9478 24.2412 30.9346 24.5338C30.8796 25.7053 30.6926 26.5028 30.422 27.2046C30.1467 27.9391 29.7138 28.6044 29.1538 29.1537C28.6038 29.7129 27.9387 30.1456 27.2047 30.422C26.504 30.6937 25.7055 30.8785 24.5351 30.9335C24.2741 30.9458 24.0131 30.9568 23.752 30.9665L23.5386 30.9731C22.9963 30.9885 22.3682 30.9962 21.1308 30.9984L20.3103 30.9995H18.8704C18.0678 31.0023 17.2651 30.9938 16.4627 30.9742L16.2493 30.9676C15.9881 30.9577 15.7271 30.9463 15.4661 30.9335C14.2958 30.8785 13.4972 30.6937 12.7954 30.422C12.0614 30.1463 11.3966 29.7134 10.8474 29.1537C10.2876 28.6041 9.85444 27.9389 9.57811 27.2046C9.30642 26.5039 9.12163 25.7053 9.06663 24.5338C9.05438 24.2728 9.04338 24.0118 9.03363 23.7507L9.02813 23.5373C9.00786 22.7352 8.9987 21.9329 9.00063 21.1305V18.869C8.99756 18.0666 9.00563 17.2643 9.02483 16.4622L9.03253 16.2488C9.04133 16.0013 9.05233 15.7582 9.06553 15.4656C9.12053 14.2942 9.30532 13.4967 9.57701 12.7949C9.85322 12.06 10.2873 11.3947 10.8485 10.8458C11.3975 10.2864 12.0619 9.85357 12.7954 9.57749C13.4972 9.30579 14.2947 9.121 15.4661 9.066C15.7587 9.0528 16.0029 9.0418 16.2493 9.033L16.4627 9.0264C17.2647 9.00686 18.067 8.99842 18.8693 9.0011L21.1308 9ZM20.0001 14.4999C18.5415 14.4999 17.1426 15.0793 16.1112 16.1107C15.0798 17.1422 14.5004 18.5411 14.5004 19.9997C14.5004 21.4584 15.0798 22.8573 16.1112 23.8887C17.1426 24.9202 18.5415 25.4996 20.0001 25.4996C21.4587 25.4996 22.8576 24.9202 23.889 23.8887C24.9204 22.8573 25.4998 21.4584 25.4998 19.9997C25.4998 18.5411 24.9204 17.1422 23.889 16.1107C22.8576 15.0793 21.4587 14.4999 20.0001 14.4999ZM20.0001 16.6998C20.4334 16.6997 20.8625 16.785 21.2629 16.9508C21.6633 17.1166 22.0271 17.3596 22.3336 17.666C22.64 17.9723 22.8832 18.3361 23.0491 18.7364C23.215 19.1367 23.3004 19.5658 23.3005 19.9992C23.3005 20.4325 23.2152 20.8617 23.0495 21.2621C22.8837 21.6625 22.6407 22.0263 22.3343 22.3328C22.028 22.6392 21.6642 22.8824 21.2639 23.0483C20.8636 23.2142 20.4345 23.2996 20.0012 23.2997C19.126 23.2997 18.2867 22.952 17.6678 22.3331C17.049 21.7143 16.7013 20.8749 16.7013 19.9997C16.7013 19.1245 17.049 18.2852 17.6678 17.6663C18.2867 17.0475 19.126 16.6998 20.0012 16.6998M25.7759 12.8499C25.4112 12.8499 25.0615 12.9948 24.8037 13.2526C24.5458 13.5105 24.4009 13.8602 24.4009 14.2249C24.4009 14.5895 24.5458 14.9393 24.8037 15.1971C25.0615 15.455 25.4112 15.5998 25.7759 15.5998C26.1405 15.5998 26.4902 15.455 26.7481 15.1971C27.0059 14.9393 27.1508 14.5895 27.1508 14.2249C27.1508 13.8602 27.0059 13.5105 26.7481 13.2526C26.4902 12.9948 26.1405 12.8499 25.7759 12.8499Z" fill="#586F80"/>
</svg>
