<svg width="12" height="8" viewBox="0 0 12 8" fill="none" xmlns="http://www.w3.org/2000/svg">
<path d="M1 3.5C0.723858 3.5 0.5 3.72386 0.5 4C0.5 4.27614 0.723858 4.5 1 4.5V3.5ZM11.3535 4.35355C11.5488 4.15829 11.5488 3.84171 11.3535 3.64645L8.17156 0.464466C7.9763 0.269204 7.65972 0.269204 7.46446 0.464466C7.2692 0.659728 7.2692 0.976311 7.46446 1.17157L10.2929 4L7.46446 6.82843C7.2692 7.02369 7.2692 7.34027 7.46446 7.53553C7.65972 7.7308 7.9763 7.7308 8.17156 7.53553L11.3535 4.35355ZM1 4.5H11V3.5H1V4.5Z" fill="#107ACA"/>
</svg>
