<svg width="1326" height="6" viewBox="0 0 1326 6" fill="none" xmlns="http://www.w3.org/2000/svg">
<path d="M0.333333 3C0.333333 4.47276 1.52724 5.66667 3 5.66667C4.47276 5.66667 5.66667 4.47276 5.66667 3C5.66667 1.52724 4.47276 0.333333 3 0.333333C1.52724 0.333333 0.333333 1.52724 0.333333 3ZM1320.33 3C1320.33 4.47276 1321.53 5.66667 1323 5.66667C1324.47 5.66667 1325.67 4.47276 1325.67 3C1325.67 1.52724 1324.47 0.333333 1323 0.333333C1321.53 0.333333 1320.33 1.52724 1320.33 3ZM3 3.5H1323V2.5H3V3.5Z" fill="#66AADD"/>
</svg>
