<svg width="36" height="48" viewBox="0 0 36 48" fill="none" xmlns="http://www.w3.org/2000/svg">
<path d="M5.625 9H3.375C2.75368 9 2.25 9.67157 2.25 10.5V42C2.25 42.8284 2.75368 43.5 3.375 43.5H5.625C6.24632 43.5 6.75 42.8284 6.75 42V10.5C6.75 9.67157 6.24632 9 5.625 9Z" stroke="#223645" stroke-linejoin="round"/>
<path d="M7.875 21H16.875M7.875 37.5H16.875" stroke="#223645" stroke-linecap="round" stroke-linejoin="round"/>
<path d="M15.75 15H9C8.37868 15 7.875 15.6716 7.875 16.5V42C7.875 42.8284 8.37868 43.5 9 43.5H15.75C16.3713 43.5 16.875 42.8284 16.875 42V16.5C16.875 15.6716 16.3713 15 15.75 15Z" stroke="#223645" stroke-linejoin="round"/>
<path d="M23.625 4.5H19.125C18.5037 4.5 18 5.17157 18 6V42C18 42.8284 18.5037 43.5 19.125 43.5H23.625C24.2463 43.5 24.75 42.8284 24.75 42V6C24.75 5.17157 24.2463 4.5 23.625 4.5Z" stroke="#223645" stroke-linejoin="round"/>
<path d="M29.7041 9.01036L26.8634 9.4088C26.0816 9.51848 25.5148 10.4935 25.6027 11.5744L28.058 41.7235C28.1466 42.8044 28.8575 43.5985 29.6394 43.4897L32.48 43.0913C33.2619 42.9816 33.8286 42.0066 33.7407 40.9257L31.2889 10.7813C31.1968 9.69567 30.4859 8.90067 29.7041 9.01036Z" stroke="#223645" stroke-linejoin="round"/>
</svg>
