<svg width="36" height="36" viewBox="0 0 36 36" fill="none" xmlns="http://www.w3.org/2000/svg">
<path d="M6.69118 16.7273V24.808C6.69118 25.1634 6.87977 25.492 7.18658 25.6714L17.5101 31.7051C17.8218 31.8873 18.2076 31.8873 18.5193 31.7051L28.8428 25.6714C29.1496 25.492 29.3382 25.1634 29.3382 24.808V16.7273M6.69118 16.7273L1.83378 14.5099C1.08151 14.1664 1.04744 13.1103 1.776 12.7191L17.5274 4.26164C17.8306 4.09884 18.1963 4.10339 18.4953 4.2737L35 13.6727M6.69118 16.7273L17.5714 22.108C17.8508 22.2462 18.1786 22.2462 18.458 22.108L29.3382 16.7273M29.3382 16.7273L35 13.6727M35 13.6727V25.8909" stroke="#223645"/>
</svg>
