<svg width="38" height="16" viewBox="0 0 38 16" fill="none" xmlns="http://www.w3.org/2000/svg">
<path d="M1 7C0.447715 7 0 7.44772 0 8C0 8.55228 0.447715 9 1 9V7ZM38.2071 8.70711C38.5976 8.31658 38.5976 7.68342 38.2071 7.29289L31.8431 0.928932C31.4526 0.538408 30.8195 0.538408 30.4289 0.928932C30.0384 1.31946 30.0384 1.95262 30.4289 2.34315L36.0858 8L30.4289 13.6569C30.0384 14.0474 30.0384 14.6805 30.4289 15.0711C30.8195 15.4616 31.4526 15.4616 31.8431 15.0711L38.2071 8.70711ZM1 9H37.5V7H1V9Z" fill="#66AADD"/>
</svg>
